<?xml version="1.0" encoding="UTF-8"?>
<svg xmlns="http://www.w3.org/2000/svg" xmlns:xlink="http://www.w3.org/1999/xlink" width="120pt" height="120pt" viewBox="0 0 120 120" version="1.1">
<g id="surface1">
<path style=" stroke:none;fill-rule:nonzero;fill:rgb(97.647059%,28.235294%,28.235294%);fill-opacity:1;" d="M 109.027344 66.808594 C 109.027344 81.25 99.640625 101.203125 88.285156 112.105469 C 83.25 116.945312 77.828125 120 72.667969 120 C 69.402344 120 66.148438 119.476562 63.347656 118.628906 C 59.511719 117.46875 55.433594 117.46875 51.597656 118.628906 C 48.796875 119.476562 45.542969 120 42.28125 120 C 36.871094 120 31.171875 116.644531 25.933594 111.394531 C 14.910156 100.355469 5.917969 80.9375 5.917969 66.808594 C 5.917969 45.960938 18.386719 33.367188 30.113281 30.328125 C 35.730469 28.871094 42.246094 29.808594 47.511719 31.179688 C 52.953125 32.597656 58.613281 32.835938 64.125 31.890625 C 65.238281 31.699219 66.339844 31.464844 67.433594 31.179688 C 72.699219 29.808594 79.210938 28.871094 84.832031 30.328125 C 96.558594 33.367188 109.027344 45.964844 109.027344 66.808594 Z M 109.027344 66.808594 "/>
<path style=" stroke:none;fill-rule:nonzero;fill:rgb(88.627451%,23.921569%,23.921569%);fill-opacity:1;" d="M 88.285156 112.101562 C 74.355469 114.566406 63.621094 113.882812 55.535156 111.925781 C 42.332031 108.726562 32.511719 97.589844 30.875 84.105469 C 26.773438 50.328125 48.84375 40.496094 48.84375 40.496094 C 55.3125 43.433594 62.585938 41.867188 62.585938 41.867188 C 57.945312 37.226562 64.125 31.890625 64.125 31.890625 C 58.613281 32.835938 52.953125 32.597656 47.511719 31.179688 C 42.246094 29.808594 35.730469 28.871094 30.113281 30.328125 C 18.386719 33.367188 5.917969 45.964844 5.917969 66.808594 C 5.917969 87.652344 25.488281 120 42.28125 120 C 45.542969 120 48.796875 119.476562 51.597656 118.628906 C 55.433594 117.46875 59.511719 117.46875 63.347656 118.628906 C 66.148438 119.476562 69.402344 120 72.667969 120 C 77.828125 120 83.25 116.945312 88.285156 112.105469 C 88.285156 112.105469 88.285156 112.105469 88.285156 112.101562 Z M 88.285156 112.101562 "/>
<path style=" stroke:none;fill-rule:nonzero;fill:rgb(78.039216%,95.686275%,57.254902%);fill-opacity:1;" d="M 114.082031 1.289062 C 114.082031 1.289062 111.1875 21.472656 95.9375 27.347656 C 81.359375 32.964844 68.367188 17.78125 63.035156 18.976562 C 62.796875 19.023438 62.574219 19.113281 62.363281 19.234375 C 62.355469 19.238281 62.351562 19.242188 62.351562 19.242188 L 62.355469 19.230469 C 62.535156 18.6875 68.378906 1.273438 83.394531 0.132812 C 98.640625 -1.027344 106.941406 5.921875 114.082031 1.289062 Z M 114.082031 1.289062 "/>
<path style=" stroke:none;fill-rule:nonzero;fill:rgb(63.921569%,88.627451%,38.039216%);fill-opacity:1;" d="M 114.082031 1.289062 C 114.082031 1.289062 104.816406 12.582031 91.789062 12.582031 C 80.332031 12.582031 66.265625 17.730469 63.035156 18.976562 C 62.648438 19.125 62.417969 19.214844 62.363281 19.234375 C 62.355469 19.238281 62.351562 19.242188 62.351562 19.242188 L 62.355469 19.230469 C 62.535156 18.6875 68.378906 1.273438 83.394531 0.132812 C 98.640625 -1.027344 106.941406 5.921875 114.082031 1.289062 Z M 114.082031 1.289062 "/>
<path style=" stroke:none;fill-rule:nonzero;fill:rgb(98.823529%,50.588235%,50.588235%);fill-opacity:1;" d="M 91.285156 47.628906 C 87.578125 47.996094 85.035156 52.9375 85.605469 58.664062 C 86.175781 64.390625 89.640625 68.734375 93.347656 68.367188 C 97.050781 68 99.59375 63.058594 99.027344 57.332031 C 98.457031 51.605469 94.992188 47.257812 91.285156 47.628906 Z M 91.285156 47.628906 "/>
<path style=" stroke:none;fill-rule:nonzero;fill:rgb(88.627451%,23.921569%,23.921569%);fill-opacity:1;" d="M 68.269531 39.007812 C 68.269531 41.378906 64.546875 43.355469 59.605469 43.804688 C 58.914062 43.867188 58.203125 43.898438 57.472656 43.898438 C 56.710938 43.898438 55.972656 43.863281 55.257812 43.796875 C 50.359375 43.332031 46.679688 41.367188 46.679688 39.007812 Z M 68.269531 39.007812 "/>
<path style=" stroke:none;fill-rule:nonzero;fill:rgb(69.803922%,34.117647%,9.803922%);fill-opacity:1;" d="M 65.710938 18.988281 L 57.792969 31.015625 C 58.386719 33.453125 58.898438 36.140625 59.230469 39.007812 C 59.414062 40.558594 59.542969 42.160156 59.605469 43.804688 C 58.914062 43.867188 58.203125 43.898438 57.472656 43.898438 C 56.710938 43.898438 55.972656 43.863281 55.257812 43.796875 C 55.191406 42.152344 55.050781 40.554688 54.855469 39.007812 C 53.4375 27.765625 49.101562 19.484375 49.046875 19.390625 C 48.488281 18.332031 48.890625 17.019531 49.949219 16.457031 C 51.007812 15.890625 52.324219 16.292969 52.886719 17.355469 C 53.011719 17.597656 54.609375 20.644531 56.21875 25.511719 L 62.085938 16.597656 C 62.742188 15.597656 64.09375 15.320312 65.089844 15.980469 C 66.09375 16.640625 66.371094 17.984375 65.710938 18.988281 Z M 65.710938 18.988281 "/>
</g>
</svg>
